<svg width="24" height="24" viewBox="0 0 24 24" fill="none" xmlns="http://www.w3.org/2000/svg">
<path d="M12 2.00024C14.717 2.00024 15.056 2.01024 16.122 2.06024C17.187 2.11024 17.912 2.27724 18.55 2.52524C19.21 2.77924 19.766 3.12324 20.322 3.67824C20.8305 4.17814 21.224 4.78283 21.475 5.45024C21.722 6.08724 21.89 6.81324 21.94 7.87824C21.987 8.94424 22 9.28324 22 12.0002C22 14.7172 21.99 15.0562 21.94 16.1222C21.89 17.1872 21.722 17.9122 21.475 18.5502C21.2247 19.218 20.8311 19.8229 20.322 20.3222C19.822 20.8306 19.2173 21.224 18.55 21.4752C17.913 21.7222 17.187 21.8902 16.122 21.9402C15.056 21.9872 14.717 22.0002 12 22.0002C9.283 22.0002 8.944 21.9902 7.878 21.9402C6.813 21.8902 6.088 21.7222 5.45 21.4752C4.78233 21.2247 4.17753 20.8312 3.678 20.3222C3.16941 19.8224 2.77593 19.2177 2.525 18.5502C2.277 17.9132 2.11 17.1872 2.06 16.1222C2.013 15.0562 2 14.7172 2 12.0002C2 9.28324 2.01 8.94424 2.06 7.87824C2.11 6.81224 2.277 6.08824 2.525 5.45024C2.77524 4.78242 3.1688 4.17757 3.678 3.67824C4.17767 3.16948 4.78243 2.77597 5.45 2.52524C6.088 2.27724 6.812 2.11024 7.878 2.06024C8.944 2.01324 9.283 2.00024 12 2.00024ZM12 7.00024C10.6739 7.00024 9.40215 7.52703 8.46447 8.46471C7.52678 9.40239 7 10.6742 7 12.0002C7 13.3263 7.52678 14.5981 8.46447 15.5358C9.40215 16.4735 10.6739 17.0002 12 17.0002C13.3261 17.0002 14.5979 16.4735 15.5355 15.5358C16.4732 14.5981 17 13.3263 17 12.0002C17 10.6742 16.4732 9.40239 15.5355 8.46471C14.5979 7.52703 13.3261 7.00024 12 7.00024ZM18.5 6.75024C18.5 6.41872 18.3683 6.10078 18.1339 5.86636C17.8995 5.63194 17.5815 5.50024 17.25 5.50024C16.9185 5.50024 16.6005 5.63194 16.3661 5.86636C16.1317 6.10078 16 6.41872 16 6.75024C16 7.08176 16.1317 7.39971 16.3661 7.63413C16.6005 7.86855 16.9185 8.00024 17.25 8.00024C17.5815 8.00024 17.8995 7.86855 18.1339 7.63413C18.3683 7.39971 18.5 7.08176 18.5 6.75024ZM12 9.00024C12.7956 9.00024 13.5587 9.31631 14.1213 9.87892C14.6839 10.4415 15 11.2046 15 12.0002C15 12.7959 14.6839 13.559 14.1213 14.1216C13.5587 14.6842 12.7956 15.0002 12 15.0002C11.2044 15.0002 10.4413 14.6842 9.87868 14.1216C9.31607 13.559 9 12.7959 9 12.0002C9 11.2046 9.31607 10.4415 9.87868 9.87892C10.4413 9.31631 11.2044 9.00024 12 9.00024Z" fill="white"/>
</svg>
